<svg width="12" height="11" viewBox="0 0 8 7" fill="none" xmlns="http://www.w3.org/2000/svg">
<path d="M4.29816 3.11482L3.89258 3.48439L4.29816 3.85397L6.98425 6.30163L6.91547 6.3643L6.61163 6.08744L4.16057 3.85394L3.82382 3.54708L3.48705 3.85393L0.731908 6.36431L0.663132 6.30164L3.34943 3.85398L3.75504 3.48441L3.34945 3.11482L0.663181 0.666989L0.732086 0.604227L3.48702 3.11483L3.82379 3.42173L4.16057 3.11484L6.91547 0.604478L6.98425 0.667152L6.74922 0.881321L4.29816 3.11482ZM0.530277 6.54803C0.530385 6.54793 0.530492 6.54783 0.530599 6.54774L0.530292 6.54802L0.530277 6.54803Z" fill="#6D6D6D" stroke="#6D6D6D" />
</svg>